HIERARCHY
ROOT Hips
{
	OFFSET 0.000000 121.760803 0.000000
	CHANNELS 6 Xposition Yposition Zposition Xrotation Yrotation Zrotation 
	JOINT Spine
	{
		OFFSET 0.072000 7.257294 -0.789700
		CHANNELS 3 Xrotation Yrotation Zrotation
		JOINT Spine1
		{
			OFFSET 0.000000 12.508769 -0.658067
			CHANNELS 3 Xrotation Yrotation Zrotation
			JOINT Spine1_split
			{
				OFFSET 0.000000 12.508769 -0.658067
				CHANNELS 3 Xrotation Yrotation Zrotation
				JOINT Spine2
				{
					OFFSET 0.000000 12.508769 -0.658067
					CHANNELS 3 Xrotation Yrotation Zrotation
					JOINT Neck
					{
						OFFSET 0.000000 14.033295 7.520400
						CHANNELS 3 Xrotation Yrotation Zrotation
						JOINT Head
						{
							OFFSET 0.000000 8.198502 5.703100
							CHANNELS 3 Xrotation Yrotation Zrotation
							JOINT HeadTop_End
							{
								OFFSET 0.000000 17.760803 13.332701
								CHANNELS 3 Xrotation Yrotation Zrotation
								End Site
								{
									OFFSET 0.000000 0.000000 0.000000
								}
							}
						}
					}
					JOINT LeftShoulder
					{
						OFFSET 6.292450 5.785301 -0.669000
						CHANNELS 3 Xrotation Yrotation Zrotation
						JOINT LeftShoulder_split
						{
							OFFSET 6.292450 5.785301 -0.669000
							CHANNELS 3 Xrotation Yrotation Zrotation
							JOINT LeftArm
							{
								OFFSET 13.907140 -6.093903 1.965100
								CHANNELS 3 Xrotation Yrotation Zrotation
								JOINT LeftForeArm
								{
									OFFSET 34.140198 0.000000 0.000000
									CHANNELS 3 Xrotation Yrotation Zrotation
									JOINT LeftHand
									{
										OFFSET 40.960209 0.000000 0.000000
										CHANNELS 3 Xrotation Yrotation Zrotation
										JOINT LeftHandThumb1
										{
											OFFSET 10.006996 -7.170425 9.573125
											CHANNELS 3 Xrotation Yrotation Zrotation
											JOINT LeftHandThumb2
											{
												OFFSET 1.835007 -1.059448 1.059443
												CHANNELS 3 Xrotation Yrotation Zrotation
												JOINT LeftHandThumb3
												{
													OFFSET 2.112267 -1.219513 1.219518
													CHANNELS 3 Xrotation Yrotation Zrotation
													JOINT LeftHandThumb4
													{
														OFFSET 4.843811 -2.796570 2.796576
														CHANNELS 3 Xrotation Yrotation Zrotation
														End Site
														{
															OFFSET 0.000000 0.000000 0.000000
														}
													}
												}
											}
										}
										JOINT LeftHandIndex1
										{
											OFFSET 18.389847 -0.922348 4.596882
											CHANNELS 3 Xrotation Yrotation Zrotation
											JOINT LeftHandIndex2
											{
												OFFSET 4.711273 0.000000 0.000000
												CHANNELS 3 Xrotation Yrotation Zrotation
												JOINT LeftHandIndex3
												{
													OFFSET 2.886131 0.000000 0.000000
													CHANNELS 3 Xrotation Yrotation Zrotation
													JOINT LeftHandIndex4
													{
														OFFSET 6.145912 0.000000 0.000000
														CHANNELS 3 Xrotation Yrotation Zrotation
														End Site
														{
															OFFSET 0.000000 0.000000 0.000000
														}
													}
												}
											}
										}
										JOINT LeftHandMiddle1
										{
											OFFSET 18.013008 0.000000 0.000000
											CHANNELS 3 Xrotation Yrotation Zrotation
											JOINT LeftHandMiddle2
											{
												OFFSET 4.946693 0.000000 0.000000
												CHANNELS 3 Xrotation Yrotation Zrotation
												JOINT LeftHandMiddle3
												{
													OFFSET 3.342232 0.000000 0.000000
													CHANNELS 3 Xrotation Yrotation Zrotation
													JOINT LeftHandMiddle4
													{
														OFFSET 4.461754 0.000000 0.000000
														CHANNELS 3 Xrotation Yrotation Zrotation
														End Site
														{
															OFFSET 0.000000 0.000000 0.000000
														}
													}
												}
											}
										}
										JOINT LeftHandRing1
										{
											OFFSET 15.849892 -0.102921 -4.126150
											CHANNELS 3 Xrotation Yrotation Zrotation
											JOINT LeftHandRing2
											{
												OFFSET 3.527054 0.000000 0.000000
												CHANNELS 3 Xrotation Yrotation Zrotation
												JOINT LeftHandRing3
												{
													OFFSET 2.961098 0.000000 0.000000
													CHANNELS 3 Xrotation Yrotation Zrotation
													JOINT LeftHandRing4
													{
														OFFSET 4.927200 0.000000 0.000000
														CHANNELS 3 Xrotation Yrotation Zrotation
														End Site
														{
															OFFSET 0.000000 0.000000 0.000000
														}
													}
												}
											}
										}
										JOINT LeftHandPinky1
										{
											OFFSET 12.791824 -0.832031 -6.799156
											CHANNELS 3 Xrotation Yrotation Zrotation
											JOINT LeftHandPinky2
											{
												OFFSET 3.327133 0.000000 0.000000
												CHANNELS 3 Xrotation Yrotation Zrotation
												JOINT LeftHandPinky3
												{
													OFFSET 3.014900 0.000000 0.000000
													CHANNELS 3 Xrotation Yrotation Zrotation
													JOINT LeftHandPinky4
													{
														OFFSET 5.847786 0.000000 0.000000
														CHANNELS 3 Xrotation Yrotation Zrotation
														End Site
														{
															OFFSET 0.000000 0.000000 0.000000
														}
													}
												}
											}
										}
									}
								}
							}
						}
					}
					JOINT RightShoulder
					{
						OFFSET -6.292450 5.785301 -0.669000
						CHANNELS 3 Xrotation Yrotation Zrotation
						JOINT RightShoulder_split
						{
							OFFSET -6.292450 5.785301 -0.669000
							CHANNELS 3 Xrotation Yrotation Zrotation
							JOINT RightArm
							{
								OFFSET -13.907140 -6.093903 1.965100
								CHANNELS 3 Xrotation Yrotation Zrotation
								JOINT RightForeArm
								{
									OFFSET -34.140198 0.000000 0.000000
									CHANNELS 3 Xrotation Yrotation Zrotation
									JOINT RightHand
									{
										OFFSET -40.960209 0.000000 0.000000
										CHANNELS 3 Xrotation Yrotation Zrotation
										JOINT RightHandThumb1
										{
											OFFSET -10.007050 -7.170456 9.573117
											CHANNELS 3 Xrotation Yrotation Zrotation
											JOINT RightHandThumb2
											{
												OFFSET -1.835007 -1.059448 1.059443
												CHANNELS 3 Xrotation Yrotation Zrotation
												JOINT RightHandThumb3
												{
													OFFSET -2.112267 -1.219513 1.219518
													CHANNELS 3 Xrotation Yrotation Zrotation
													JOINT RightHandThumb4
													{
														OFFSET -4.843834 -2.796585 2.796590
														CHANNELS 3 Xrotation Yrotation Zrotation
														End Site
														{
															OFFSET 0.000000 0.000000 0.000000
														}
													}
												}
											}
										}
										JOINT RightHandIndex1
										{
											OFFSET -18.389870 -0.922424 4.596786
											CHANNELS 3 Xrotation Yrotation Zrotation
											JOINT RightHandIndex2
											{
												OFFSET -4.711273 0.000000 0.000000
												CHANNELS 3 Xrotation Yrotation Zrotation
												JOINT RightHandIndex3
												{
													OFFSET -2.886131 0.000000 0.000000
													CHANNELS 3 Xrotation Yrotation Zrotation
													JOINT RightHandIndex4
													{
														OFFSET -6.145920 0.000000 0.000000
														CHANNELS 3 Xrotation Yrotation Zrotation
														End Site
														{
															OFFSET 0.000000 0.000000 0.000000
														}
													}
												}
											}
										}
										JOINT RightHandMiddle1
										{
											OFFSET -18.013008 0.000000 0.000000
											CHANNELS 3 Xrotation Yrotation Zrotation
											JOINT RightHandMiddle2
											{
												OFFSET -4.946693 0.000000 0.000000
												CHANNELS 3 Xrotation Yrotation Zrotation
												JOINT RightHandMiddle3
												{
													OFFSET -3.342232 0.000000 0.000000
													CHANNELS 3 Xrotation Yrotation Zrotation
													JOINT RightHandMiddle4
													{
														OFFSET -4.461754 0.000000 0.000000
														CHANNELS 3 Xrotation Yrotation Zrotation
														End Site
														{
															OFFSET 0.000000 0.000000 0.000000
														}
													}
												}
											}
										}
										JOINT RightHandRing1
										{
											OFFSET -15.849876 -0.102936 -4.126237
											CHANNELS 3 Xrotation Yrotation Zrotation
											JOINT RightHandRing2
											{
												OFFSET -3.527054 0.000000 0.000000
												CHANNELS 3 Xrotation Yrotation Zrotation
												JOINT RightHandRing3
												{
													OFFSET -2.961098 0.000000 0.000000
													CHANNELS 3 Xrotation Yrotation Zrotation
													JOINT RightHandRing4
													{
														OFFSET -4.927200 0.000000 0.000000
														CHANNELS 3 Xrotation Yrotation Zrotation
														End Site
														{
															OFFSET 0.000000 0.000000 0.000000
														}
													}
												}
											}
										}
										JOINT RightHandPinky1
										{
											OFFSET -12.791786 -0.832077 -6.799222
											CHANNELS 3 Xrotation Yrotation Zrotation
											JOINT RightHandPinky2
											{
												OFFSET -3.327133 0.000000 0.000000
												CHANNELS 3 Xrotation Yrotation Zrotation
												JOINT RightHandPinky3
												{
													OFFSET -3.014900 0.000000 0.000000
													CHANNELS 3 Xrotation Yrotation Zrotation
													JOINT RightHandPinky4
													{
														OFFSET -5.847786 0.000000 0.000000
														CHANNELS 3 Xrotation Yrotation Zrotation
														End Site
														{
															OFFSET 0.000000 0.000000 0.000000
														}
													}
												}
											}
										}
									}
								}
							}
						}
					}
				}
			}
		}
	}
	JOINT LeftUpLeg
	{
		OFFSET 13.026900 -6.336304 -1.092800
		CHANNELS 3 Xrotation Yrotation Zrotation
		JOINT LeftLeg
		{
			OFFSET 0.524474 -46.096886 9.782700
			CHANNELS 3 Xrotation Yrotation Zrotation
			JOINT LeftFoot
			{
				OFFSET -0.524474 -53.427422 -12.948200
				CHANNELS 3 Xrotation Yrotation Zrotation
				JOINT LeftToeBase
				{
					OFFSET 0.192200 -14.009700 16.364100
					CHANNELS 3 Xrotation Yrotation Zrotation
					JOINT LeftToe_End
					{
						OFFSET -1.784700 -0.561700 9.474800
						CHANNELS 3 Xrotation Yrotation Zrotation
						End Site
						{
							OFFSET 0.000000 0.000000 0.000000
						}
					}
				}
			}
		}
	}
	JOINT RightUpLeg
	{
		OFFSET -12.883000 -6.336304 -1.092800
		CHANNELS 3 Xrotation Yrotation Zrotation
		JOINT RightLeg
		{
			OFFSET -0.524587 -46.096825 9.782800
			CHANNELS 3 Xrotation Yrotation Zrotation
			JOINT RightFoot
			{
				OFFSET 0.524587 -53.427383 -12.948300
				CHANNELS 3 Xrotation Yrotation Zrotation
				JOINT RightToeBase
				{
					OFFSET -0.192200 -14.009700 16.364100
					CHANNELS 3 Xrotation Yrotation Zrotation
					JOINT RightToe_End
					{
						OFFSET 1.784700 -0.561700 9.474800
						CHANNELS 3 Xrotation Yrotation Zrotation
						End Site
						{
							OFFSET 0.000000 0.000000 0.000000
						}
					}
				}
			}
		}
	}
}
MOTION
Frames: 5
Frame Time: 0.016667
0.356377 118.053543 -0.823778 2.912923 -29.006536 0.903436 7.837617 -0.307800 -2.400019 1.099256 -0.880581 2.383465 0.000000 0.000000 0.000000 1.108676 -0.590432 2.446365 -3.841835 18.019058 -6.496489 -6.332743 13.021566 0.301528 0.000000 0.000000 -0.000000 -0.057386 -8.759444 -0.061007 0.000000 0.000000 0.000000 -55.250821 0.329460 -41.449355 11.584345 -65.827294 13.005463 -50.191030 12.352926 4.610815 17.551616 -5.699196 -12.932302 10.850462 26.127717 8.644843 20.927008 51.115896 0.218770 -0.000001 -0.000000 -0.000001 13.980912 1.201545 -55.004371 0.370828 1.161706 -65.441873 1.983968 2.147973 -57.665129 -0.000000 0.000000 -0.000002 7.504735 1.174483 -63.778517 1.807818 1.475672 -64.567937 0.130359 -0.912247 -43.272530 0.000000 0.000001 -0.000000 8.574333 2.179138 -75.148999 -0.207663 1.009288 -57.855049 0.443115 1.742180 -53.581256 0.000001 -0.000000 -0.000002 10.030085 13.637063 -84.750237 0.877099 0.062316 -64.595544 1.141290 1.253123 -55.016320 0.000000 0.000000 0.000000 4.849300 7.760144 5.560459 0.000000 0.000000 0.000000 -0.933468 -2.176907 61.845614 11.299286 18.943564 -3.987576 -0.459221 6.620096 5.830220 15.788385 -2.734510 -17.205795 -2.198368 -31.113561 7.361238 -6.564267 -4.136658 2.406501 0.000000 0.000002 0.000001 2.382180 -3.656537 8.488157 -2.150637 -2.471234 18.673324 -1.903768 -4.812981 14.173548 0.000001 -0.000001 0.000000 -1.979711 -5.703092 13.662281 0.280394 -5.098938 26.988043 -0.665020 -1.219185 16.125826 -0.000000 0.000001 -0.000002 -3.257613 -8.560611 11.770079 4.036123 -4.060209 33.262960 2.105488 -3.157823 15.593643 0.000000 0.000000 0.000001 -6.474166 -11.347977 23.260715 10.715055 -2.557676 34.822647 6.412740 -3.078177 15.310812 -0.000000 -0.000000 0.000001 -15.836617 18.228368 11.838839 13.978354 12.899496 -0.955171 -0.254127 -3.826638 -5.805127 -0.142081 0.007490 -0.310364 0.000000 0.000000 0.000000 -7.704233 -1.705972 -8.156626 10.290680 9.438175 0.798919 -5.652710 -0.758519 6.750674 -1.288150 -0.016815 0.151285 -0.000000 0.000001 -0.000000 
0.129154 117.429161 -0.579753 3.089909 -27.970287 1.046751 7.586362 -0.067541 -2.695662 1.179884 -0.587876 2.428847 0.000000 0.000000 0.000000 1.179491 -0.331354 2.447598 -4.361383 17.503034 -6.286972 -6.658287 12.494607 0.882709 0.000000 0.000000 0.000000 -0.156523 -7.613174 -0.517557 0.000000 0.000000 0.000000 -54.992872 2.359953 -39.858870 14.183377 -68.506538 15.203352 -50.021092 11.836328 3.695137 17.551612 -5.699191 -12.932302 10.850466 26.127721 8.644840 20.927005 51.115906 0.218772 -0.000000 0.000002 0.000001 13.980911 1.201547 -55.004374 0.370827 1.161706 -65.441873 1.983971 2.147975 -57.665129 0.000001 -0.000000 0.000001 7.504735 1.174484 -63.778517 1.807815 1.475672 -64.567937 0.130358 -0.912246 -43.272534 -0.000000 0.000001 -0.000000 8.574333 2.179138 -75.148999 -0.207665 1.009289 -57.855063 0.443116 1.742181 -53.581260 -0.000000 -0.000001 -0.000000 10.030082 13.637063 -84.750237 0.877099 0.062316 -64.595537 1.141291 1.253124 -55.016323 0.000000 -0.000000 0.000005 4.812131 8.119672 5.688569 0.000000 0.000000 0.000000 -0.408747 -2.451837 61.988488 12.244017 18.822502 -4.559258 -0.536304 7.009255 5.751504 15.835307 -2.735888 -17.119557 -2.264952 -31.017661 7.352487 -6.532636 -4.205997 2.392064 0.000000 0.000000 0.000001 2.381966 -3.658123 8.566159 -2.150599 -2.472778 18.751251 -1.903823 -4.813460 14.251543 -0.000001 0.000000 0.000001 -1.979307 -5.704401 13.740271 0.282756 -5.099366 27.066146 -0.665023 -1.220607 16.203794 0.000001 0.000000 -0.000002 -3.258066 -8.562268 11.847966 4.035926 -4.062109 33.341114 2.105866 -3.159234 15.671686 0.000001 -0.000000 -0.000005 -6.485088 -11.390087 23.332695 10.716260 -2.558935 34.900897 6.414168 -3.079560 15.389060 0.000000 0.000000 0.000000 -17.078594 17.598937 11.996244 15.869014 12.068178 -1.055954 -1.103630 -3.601348 -5.930511 -0.142072 0.007489 -0.310365 -0.000000 -0.000000 0.000000 -8.557614 -1.604523 -8.300670 12.466902 8.956584 0.766476 -7.051433 -1.257461 6.630352 -1.288156 -0.016813 0.151285 0.000000 -0.000003 -0.000000 
-0.078691 116.840584 -0.307318 3.262842 -26.771398 1.129714 7.262363 0.235011 -2.875284 1.305103 -0.239093 2.460833 0.000000 0.000000 0.000000 1.292171 -0.018787 2.426594 -4.964534 16.791067 -6.023530 -6.880097 11.820293 1.376510 -0.000000 -0.000000 0.000000 -0.257670 -6.543727 -1.038120 0.000000 0.000000 0.000000 -54.949606 4.638169 -38.362666 19.162403 -71.200856 19.813547 -49.825359 10.829553 2.949342 17.551614 -5.699197 -12.932301 10.850463 26.127721 8.644842 20.927000 51.115899 0.218772 0.000003 0.000002 -0.000001 13.980912 1.201544 -55.004374 0.370825 1.161707 -65.441873 1.983969 2.147976 -57.665129 -0.000001 -0.000001 0.000000 7.504734 1.174486 -63.778517 1.807816 1.475672 -64.567937 0.130358 -0.912248 -43.272534 0.000000 -0.000002 0.000000 8.574333 2.179138 -75.148999 -0.207664 1.009289 -57.855056 0.443113 1.742178 -53.581256 0.000000 0.000003 -0.000000 10.030084 13.637064 -84.750237 0.877100 0.062316 -64.595544 1.141291 1.253123 -55.016327 -0.000000 -0.000000 -0.000001 4.776428 8.473867 5.863062 0.000000 0.000000 0.000000 0.334836 -2.740973 62.151183 13.457525 18.694463 -5.471667 -0.738287 7.226694 5.672229 15.960346 -2.740601 -16.876644 -2.449928 -30.750768 7.328906 -6.440398 -4.396676 2.350399 0.000000 -0.000000 0.000003 2.381017 -3.658316 8.783388 -2.150650 -2.472927 18.968453 -1.903962 -4.814751 14.468762 -0.000000 0.000001 -0.000003 -1.978070 -5.708029 13.957469 0.282842 -5.100868 27.283361 -0.664598 -1.220688 16.421093 0.000001 0.000001 0.000001 -3.259170 -8.562337 12.065006 4.035362 -4.062296 33.558335 2.106690 -3.159367 15.888944 0.000000 0.000000 -0.000001 -6.514887 -11.507475 23.533051 10.719503 -2.558902 35.118217 6.414175 -3.079654 15.606217 -0.000000 0.000000 0.000000 -18.275006 16.986841 12.119424 17.592945 11.070202 -1.165001 -1.876787 -3.375946 -5.948906 -0.142077 0.007489 -0.310366 0.000000 0.000000 0.000000 -9.204935 -1.574396 -8.355585 14.354001 8.816771 0.758590 -8.355336 -2.220760 6.432307 -1.288153 -0.016859 0.151290 0.000000 -0.000000 -0.000000 
-0.270430 116.289391 -0.011179 3.426518 -25.412639 1.166893 6.885458 0.583398 -2.961864 1.460489 0.152813 2.478274 0.000000 0.000000 0.000000 1.433638 0.334552 2.384510 -5.614538 15.907838 -5.715406 -7.022093 11.021186 1.798167 -0.000000 -0.000000 0.000000 -0.348972 -5.538384 -1.589104 0.000000 0.000000 0.000000 -55.141565 7.041877 -36.915448 26.186587 -73.767068 26.509894 -49.617875 9.602808 2.265837 17.551614 -5.699197 -12.932301 10.850460 26.127716 8.644842 20.927000 51.115896 0.218773 -0.000001 0.000001 0.000000 13.980912 1.201544 -55.004374 0.370826 1.161707 -65.441873 1.983965 2.147971 -57.665122 -0.000001 -0.000003 -0.000000 7.504734 1.174485 -63.778517 1.807817 1.475671 -64.567937 0.130357 -0.912248 -43.272530 -0.000000 -0.000001 -0.000001 8.574333 2.179139 -75.148999 -0.207666 1.009289 -57.855056 0.443117 1.742182 -53.581260 0.000000 0.000002 0.000000 10.030085 13.637063 -84.750237 0.877101 0.062316 -64.595544 1.141291 1.253125 -55.016323 -0.000000 0.000001 -0.000002 4.736006 8.868331 6.075507 0.000000 0.000000 0.000000 1.246721 -3.107692 62.321248 14.852974 18.537195 -6.632882 -1.106521 7.329464 5.646166 16.151253 -2.746682 -16.506581 -2.730712 -30.343836 7.294821 -6.299988 -4.687453 2.287424 -0.000001 0.000004 0.000002 2.379603 -3.658624 9.114419 -2.150754 -2.473108 19.299608 -1.904141 -4.816675 14.799717 -0.000000 -0.000000 -0.000000 -1.976187 -5.708183 14.288677 0.283038 -5.103084 27.614467 -0.663961 -1.220822 16.752183 -0.000000 0.000001 -0.000000 -3.260870 -8.562463 12.395855 4.034543 -4.062545 33.889377 2.108004 -3.159530 16.220106 0.000001 -0.000000 0.000001 -6.558733 -11.686801 23.838368 10.719592 -2.559026 35.449303 6.414221 -3.079807 15.937359 -0.000001 0.000000 -0.000003 -19.401475 16.409646 12.327490 19.215364 11.351037 -1.180488 -2.616143 -4.636352 -6.170621 -0.142083 0.007494 -0.310366 -0.000000 -0.000000 0.000000 -9.665833 -1.603792 -8.394417 15.993943 8.382604 0.727496 -9.577386 -3.024938 6.337214 -1.253176 -0.016753 0.151293 -0.000000 0.000003 0.000000 
-0.431140 115.772629 0.331857 3.571213 -23.738464 1.118167 6.419430 1.009437 -2.871178 1.662625 0.618031 2.465392 0.000000 0.000000 0.000000 1.619630 0.757042 2.301280 -6.324930 14.707612 -5.323785 -7.042619 9.995197 2.091716 0.000000 -0.000000 0.000000 -0.430485 -4.648622 -2.168048 0.000000 0.000000 0.000000 -55.715827 9.563796 -35.523790 35.115307 -76.191266 35.108637 -49.399637 8.212394 1.585888 17.551611 -5.699193 -12.932302 10.850458 26.127716 8.644843 20.927001 51.115899 0.218774 0.000001 0.000001 -0.000000 13.980909 1.201546 -55.004377 0.370822 1.161706 -65.441880 1.983972 2.147973 -57.665129 0.000000 0.000000 -0.000000 7.504734 1.174484 -63.778517 1.807817 1.475672 -64.567937 0.130360 -0.912251 -43.272534 0.000000 -0.000002 -0.000001 8.574332 2.179140 -75.148999 -0.207666 1.009289 -57.855056 0.443115 1.742184 -53.581260 -0.000001 0.000001 -0.000001 10.030082 13.637063 -84.750237 0.877099 0.062316 -64.595544 1.141289 1.253124 -55.016320 -0.000000 0.000001 -0.000001 4.681183 9.389220 6.355684 0.000000 0.000000 0.000000 2.453030 -3.699835 62.477899 16.528083 18.324168 -8.202588 -1.848602 7.260509 5.774311 16.393813 -2.752492 -16.037689 -3.084468 -29.827839 7.255379 -6.122376 -5.056207 2.208581 0.000000 0.000002 0.000001 2.377804 -3.659013 9.533899 -2.150767 -2.473332 19.719236 -1.904399 -4.819014 15.219308 -0.000001 -0.000001 -0.000000 -1.976141 -5.708369 14.708372 0.283239 -5.105820 28.034062 -0.663096 -1.221025 17.171871 -0.000000 -0.000001 0.000005 -3.262941 -8.562608 12.815177 4.033552 -4.062818 34.308969 2.108096 -3.159795 16.639796 -0.000001 0.000001 0.000003 -6.611504 -11.914736 24.225284 10.719705 -2.559183 35.869087 6.414268 -3.079986 16.357012 -0.000000 0.000003 0.000001 -20.550736 15.931478 12.453183 20.675392 10.551570 -1.274102 -3.266723 -5.211709 -6.077638 -0.142068 0.007491 -0.310366 -0.000000 -0.000000 -0.000000 -9.880663 -1.719454 -8.477913 17.382850 6.723628 0.605336 -10.723235 -2.902701 6.684595 -1.175382 -0.016531 0.151317 -0.000000 0.000001 -0.000000 
